inDegrees=no
num_controls=7
num_derivatives=13
num_iterations=102
num_multipliers=7
num_parameters=0
num_slacks=7
num_states=26
objective=0.500104
objective_accelerations=0.016492
objective_balance=0.003882
objective_effort=0.052648
objective_height=0.421562
objective_ligament=0.005520
solver_duration=1246.142627
status=Solve_Succeeded
success=true
DataType=double
version=3
OpenSimVersion=4.5
endheader
time	/jointset/ground_pelvis/pelvis_tilt/value	/jointset/ground_pelvis/pelvis_tx/value	/jointset/ground_pelvis/pelvis_ty/value	/jointset/hip_l/hip_flexion_l/value	/jointset/hip_l/hip_adduction_l/value	/jointset/hip_l/hip_rotation_l/value	/jointset/back/lumbar_extension/value	/jointset/patellofemoral_l/patellar_flexion_l/value	/jointset/knee_l/knee_flexion_l/value	/jointset/knee_l/knee_adduction_l/value	/jointset/knee_l/knee_rotation_l/value	/jointset/ankle_l/ankle_angle_l/value	/jointset/subtalar_l/subtalar_angle_l/value	/jointset/ground_pelvis/pelvis_tilt/speed	/jointset/ground_pelvis/pelvis_tx/speed	/jointset/ground_pelvis/pelvis_ty/speed	/jointset/hip_l/hip_flexion_l/speed	/jointset/hip_l/hip_adduction_l/speed	/jointset/hip_l/hip_rotation_l/speed	/jointset/back/lumbar_extension/speed	/jointset/patellofemoral_l/patellar_flexion_l/speed	/jointset/knee_l/knee_flexion_l/speed	/jointset/knee_l/knee_adduction_l/speed	/jointset/knee_l/knee_rotation_l/speed	/jointset/ankle_l/ankle_angle_l/speed	/jointset/subtalar_l/subtalar_angle_l/speed	/forceset/tau_hip_flexion_l	/forceset/tau_hip_adduction_l	/forceset/tau_hip_rotation_l	/forceset/tau_knee_flexion_l	/forceset/tau_ankle_angle_l	/forceset/tau_subtalar_angle_l	/forceset/tau_lumbar_extension	lambda_cid13_p0	lambda_cid13_p1	lambda_cid13_p2	lambda_cid13_p3	lambda_cid13_p4	lambda_cid13_p5	lambda_cid14_p0	/jointset/ground_pelvis/pelvis_tilt/accel	/jointset/ground_pelvis/pelvis_tx/accel	/jointset/ground_pelvis/pelvis_ty/accel	/jointset/hip_l/hip_flexion_l/accel	/jointset/hip_l/hip_adduction_l/accel	/jointset/hip_l/hip_rotation_l/accel	/jointset/back/lumbar_extension/accel	/jointset/patellofemoral_l/patellar_flexion_l/accel	/jointset/knee_l/knee_flexion_l/accel	/jointset/knee_l/knee_adduction_l/accel	/jointset/knee_l/knee_rotation_l/accel	/jointset/ankle_l/ankle_angle_l/accel	/jointset/subtalar_l/subtalar_angle_l/accel	gamma_cid13_p0	gamma_cid13_p1	gamma_cid13_p2	gamma_cid13_p3	gamma_cid13_p4	gamma_cid13_p5	gamma_cid14_p0
1	-0.2452625695038473	-0.08186437091491471	0.8171031569971977	1.01080993897048	-0.293560845987608	-0.1816089392353839	-0.959930928879394	0.6918528729547779	0.6918528729546495	-0.05255331118493461	-0.1745249463992544	-0.01658065559102286	-0.004403079305557132	0.1319298441182317	0.03011507624774332	0.05374171252671174	-0.2928180565909668	0.01585942969558993	-0.05351871193105893	-0.002192137373288569	-0.1569678564204346	-0.1569678564204344	0.003691559547516195	-3.919728363874052e-05	0.001081222412262554	0.0172992267056148	-0.4492068023452226	0.07204738453536243	-0.009191948441988092	-0.06029542369326689	0.03344152029074657	0.07279370672988378	0.4511895272873237	-35.99701165244978	-25.93055828732945	4.386856701655982	5.397015254554564	-756.7008964887864	-68.90322597979662	-18.32649604574963	1.811638062785246	0.2840827992235652	0.6518225376273669	-3.730767710948246	0.1246775725093504	-0.5885487749521517	0.4106389212553626	-1.983778873351145	-1.983778873351146	-0.1522682035424439	-0.003423610956278598	-0.1452967515067141	0.08573807629211336	1.155454797133012e-09	-2.485912367817414e-08	-6.475273929684155e-10	-3.252482396882941e-09	-1.964799282714419e-08	3.258552704324031e-09	-2.340522181617872e-09
1.01	-0.2438535882319459	-0.08154894946275808	0.8176729644304066	1.007696438864132	-0.2933958025679136	-0.1821731235943038	-0.9599310053114656	0.6901843454480299	0.6901843454479077	-0.05252375998767796	-0.1745250412309955	-0.01657695712858039	-0.004225534481276156	0.1498400884882075	0.03298049550692926	0.06021293696713761	-0.3298610095931761	0.01714819505015166	-0.05931481170737071	0.002235298054203275	-0.1767318573193383	-0.1767318573193383	0.002212482535871567	1.898826891869653e-05	-0.0003302396382176463	0.01821241426428166	-0.4483705672918705	0.07193598099820737	-0.009177723323058577	-0.06043858113907212	0.03399681296148864	0.07272401688416695	0.4510253033594922	-35.80490789054568	-25.94130183102677	4.396992228222843	5.072458369329444	-756.6090145331497	-69.0012085383263	-18.38258439815384	1.776769735651184	0.2894636139056462	0.6437419300210176	-3.687915953234074	0.1308219209130116	-0.574642832750327	0.4675629165622404	-1.971841946789052	-1.97184194678909	-0.1466628657421667	0.01025484963630256	-0.1373778297568031	0.09451498323687056	-8.495374984008828e-10	-2.899767564889098e-08	9.951036249964186e-10	-3.980857458476754e-10	-2.442691300928613e-08	3.124009939737625e-09	-3.042261484675297e-09
1.02	-0.2422662940940337	-0.08120453539308169	0.8183072780145738	1.004213137856089	-0.2932179023138759	-0.1827951694017471	-0.9598850539765938	0.6883183516825653	0.6883183516824526	-0.05250918664369204	-0.1745245911649567	-0.01658703466622991	-0.004038776603891875	0.1675924173200792	0.03591359975169695	0.06664294271839481	-0.3667782369304585	0.01843079656405149	-0.06509100163486835	0.007013416004337567	-0.1964611081634047	-0.1964611081634049	0.0006959888935581781	6.978227245731394e-05	-0.001673977606223138	0.01914183732626377	-0.4475343322385195	0.07182457746104624	-0.009163498204121656	-0.06058173858487738	0.03455210563222901	0.07265432703844321	0.4508610794316615	-35.62227694298743	-25.9515605795255	4.408391292169983	4.756265647352665	-756.6635706936167	-69.11143820445682	-18.44505956940822	1.78005495516442	0.2976197963399107	0.6435787997936322	-3.705622577962862	0.1234448043769705	-0.5845668051893236	0.4807754257837135	-1.976828862383686	-1.976828862383677	-0.1597515296761966	-0.004901920760042139	-0.1317519350117788	0.08898517695516069	-2.060055065426639e-09	-3.339875735825722e-08	2.106714772065824e-09	1.049125813575815e-09	-2.859077465176828e-08	2.973371731143574e-09	-3.677980753457673e-09
1.03	-0.2405026628028062	-0.08083019563535578	0.8190057013365704	1.000361404911073	-0.2930272376507018	-0.1834748433697673	-0.9597878247927562	0.6862552945764457	0.6862552945764948	-0.05251002751716366	-0.1745236718254697	-0.01660986661307151	-0.003842557511164731	0.1850684749440422	0.03899169874983895	0.07303671296473742	-0.4035383130350757	0.01969707836231632	-0.07083855323150758	0.01266503127866709	-0.2161400231750469	-0.216140023175047	-0.0008779989724211608	0.0001108761267811504	-0.002846810679983857	0.02011229133915388	-0.4479455463958495	0.0717909896487757	-0.009133910826866784	-0.0606155220798084	0.0358121783510031	0.07270709036442009	0.4523335548845662	-35.24980463025361	-26.04447618031705	4.428668224086604	3.835980011621391	-757.6946439498777	-69.31028758257445	-18.51383561685228	1.721576818757625	0.3185075000708621	0.6365182547555286	-3.656694438856359	0.1274671627290829	-0.5690695437377608	0.642246155437928	-1.961878471233884	-1.961878471233879	-0.1583051405447891	0.008136053357437636	-0.1032097271303825	0.1026276910752322	-3.262465747467614e-09	-3.780251794250763e-08	3.212907349024049e-09	2.481978341452238e-09	-3.274836018670288e-08	2.822569283324954e-09	-4.313026348420916e-09
